<svg width="19" height="25" viewBox="0 0 19 25" fill="none" xmlns="http://www.w3.org/2000/svg">
<path d="M8.52368 24.241C1.33445 14.0628 0 13.0182 0 9.27757C0 4.15369 4.25328 0 9.5 0C14.7467 0 19 4.15369 19 9.27757C19 13.0182 17.6655 14.0628 10.4763 24.241C10.0045 24.9066 8.99541 24.9066 8.52368 24.241ZM9.5 13.1432C11.6861 13.1432 13.4583 11.4125 13.4583 9.27757C13.4583 7.14262 11.6861 5.41192 9.5 5.41192C7.31386 5.41192 5.54167 7.14262 5.54167 9.27757C5.54167 11.4125 7.31386 13.1432 9.5 13.1432Z" fill="#3A1111"/>
</svg>
